<svg width="32" height="32" viewBox="0 0 32 32" fill="none" xmlns="http://www.w3.org/2000/svg">
<g clip-path="url(#clip0_10400_2352)">
<mask id="mask0_10400_2352" style="mask-type:luminance" maskUnits="userSpaceOnUse" x="0" y="0" width="32" height="32">
<path d="M31.3613 4.75498C31.3613 4.75498 31.3613 4.70767 31.3613 4.6919C26.8665 2.1054 21.662 0.638672 16.1105 0.638672C10.559 0.638672 5.18093 2.15272 0.638794 4.8023C0.654565 16.1576 6.83692 26.062 16.0001 31.3612C25.179 26.0463 31.3613 16.1261 31.3613 4.75498Z" fill="white"/>
</mask>
<g mask="url(#mask0_10400_2352)">
<path d="M31.3613 4.75498C31.3613 4.75498 31.3613 4.70767 31.3613 4.6919C26.8665 2.1054 21.662 0.638672 16.1105 0.638672C10.559 0.638672 5.18093 2.15272 0.638794 4.8023C0.654565 16.1576 6.83692 26.062 16.0001 31.3612C25.179 26.0463 31.3613 16.1261 31.3613 4.75498Z" fill="#444CE7"/>
<path d="M10.4643 12.262C11.316 10.1171 13.4136 8.60305 15.8423 8.60305C17.3879 8.60305 18.8389 9.20236 19.9429 10.2906L21.8039 8.42956C20.211 6.83666 18.0976 5.96924 15.8581 5.96924C11.9468 5.96924 8.65062 8.65036 7.70435 12.262H10.4643Z" fill="white"/>
<path d="M-0.638672 13.082V15.7001H20.1637V18.255C19.0597 19.4852 17.5141 20.1791 15.8424 20.1791C13.3978 20.1791 11.316 18.6651 10.4643 16.5202H7.70435C8.65063 20.1318 11.9468 22.8129 15.8581 22.8129C18.4919 22.8129 20.9207 21.6143 22.5294 19.5325L22.7975 19.1855V13.082H-0.638672Z" fill="white"/>
</g>
</g>
<defs>
<clipPath id="clip0_10400_2352">
<rect width="32" height="32" fill="white"/>
</clipPath>
</defs>
</svg>
